<mxfile host="app.diagrams.net" modified="2022-09-05T18:03:10.166Z" agent="5.0 (Windows NT 10.0; Win64; x64) AppleWebKit/537.36 (KHTML, like Gecko) Chrome/104.0.0.0 Safari/537.36" etag="zndIX00IgzTM0w6ytwly" version="20.2.7" type="github" pages="2">
  <diagram id="oiCxlsJyy77xaSjBRhsr" name="DiagramaER">
    <mxGraphModel dx="1289" dy="702" grid="1" gridSize="10" guides="1" tooltips="1" connect="1" arrows="1" fold="1" page="1" pageScale="1" pageWidth="1169" pageHeight="827" background="#ffffff" math="0" shadow="0">
      <root>
        <mxCell id="0" />
        <mxCell id="1" parent="0" />
        <mxCell id="qVGGXMiODCfk0jNXhs8Z-45" style="edgeStyle=orthogonalEdgeStyle;rounded=0;orthogonalLoop=1;jettySize=auto;html=1;entryX=0.5;entryY=0;entryDx=0;entryDy=0;fontFamily=PalatinoLinotype;fontSource=http%3A%2F%2Ffonts.cdnfonts.com%2Fcss%2Fpalatino-linotype;fontSize=16;fontColor=#000000;endArrow=none;endFill=0;" parent="1" source="qVGGXMiODCfk0jNXhs8Z-1" target="qVGGXMiODCfk0jNXhs8Z-7" edge="1">
          <mxGeometry relative="1" as="geometry">
            <Array as="points">
              <mxPoint x="800" y="190" />
            </Array>
          </mxGeometry>
        </mxCell>
        <mxCell id="qVGGXMiODCfk0jNXhs8Z-63" value="m" style="edgeLabel;html=1;align=center;verticalAlign=middle;resizable=0;points=[];fontSize=16;fontFamily=PalatinoLinotype;fontColor=#000000;rounded=0;" parent="qVGGXMiODCfk0jNXhs8Z-45" vertex="1" connectable="0">
          <mxGeometry x="-0.8093" y="5" relative="1" as="geometry">
            <mxPoint x="-7" y="-15" as="offset" />
          </mxGeometry>
        </mxCell>
        <mxCell id="qVGGXMiODCfk0jNXhs8Z-93" style="edgeStyle=none;rounded=0;orthogonalLoop=1;jettySize=auto;html=1;entryX=1;entryY=0.5;entryDx=0;entryDy=0;fontFamily=PalatinoLinotype;fontSource=http%3A%2F%2Ffonts.cdnfonts.com%2Fcss%2Fpalatino-linotype;fontSize=16;fontColor=#000000;endArrow=none;endFill=0;" parent="1" source="qVGGXMiODCfk0jNXhs8Z-1" target="qVGGXMiODCfk0jNXhs8Z-24" edge="1">
          <mxGeometry relative="1" as="geometry" />
        </mxCell>
        <mxCell id="qVGGXMiODCfk0jNXhs8Z-1" value="&lt;font style=&quot;font-size: 16px;&quot;&gt;Usuario&lt;/font&gt;" style="rounded=0;whiteSpace=wrap;html=1;fontFamily=PalatinoLinotype;fontSource=http%3A%2F%2Ffonts.cdnfonts.com%2Fcss%2Fpalatino-linotype;fontStyle=1;fontSize=16;fillColor=#0050ef;fontColor=#000000;strokeColor=#3333FF;" parent="1" vertex="1">
          <mxGeometry x="440" y="160" width="160" height="80" as="geometry" />
        </mxCell>
        <mxCell id="qVGGXMiODCfk0jNXhs8Z-47" style="rounded=0;orthogonalLoop=1;jettySize=auto;html=1;exitX=0.5;exitY=1;exitDx=0;exitDy=0;entryX=0.5;entryY=0;entryDx=0;entryDy=0;fontFamily=PalatinoLinotype;fontSource=http%3A%2F%2Ffonts.cdnfonts.com%2Fcss%2Fpalatino-linotype;fontSize=16;fontColor=#000000;endArrow=none;endFill=0;" parent="1" source="qVGGXMiODCfk0jNXhs8Z-3" target="qVGGXMiODCfk0jNXhs8Z-8" edge="1">
          <mxGeometry relative="1" as="geometry" />
        </mxCell>
        <mxCell id="qVGGXMiODCfk0jNXhs8Z-61" style="edgeStyle=none;rounded=0;orthogonalLoop=1;jettySize=auto;html=1;entryX=0;entryY=0.5;entryDx=0;entryDy=0;fontFamily=PalatinoLinotype;fontSource=http%3A%2F%2Ffonts.cdnfonts.com%2Fcss%2Fpalatino-linotype;fontSize=16;fontColor=#000000;endArrow=none;endFill=0;exitX=1;exitY=0.5;exitDx=0;exitDy=0;" parent="1" source="qVGGXMiODCfk0jNXhs8Z-3" target="qVGGXMiODCfk0jNXhs8Z-26" edge="1">
          <mxGeometry relative="1" as="geometry" />
        </mxCell>
        <mxCell id="qVGGXMiODCfk0jNXhs8Z-3" value="&lt;font style=&quot;font-size: 16px;&quot;&gt;Hospital&lt;/font&gt;" style="rounded=0;whiteSpace=wrap;html=1;fontFamily=PalatinoLinotype;fontSource=http%3A%2F%2Ffonts.cdnfonts.com%2Fcss%2Fpalatino-linotype;fontStyle=1;fontSize=16;fillColor=#0050ef;fontColor=#000000;strokeColor=#3333FF;" parent="1" vertex="1">
          <mxGeometry x="720" y="350" width="160" height="80" as="geometry" />
        </mxCell>
        <mxCell id="qVGGXMiODCfk0jNXhs8Z-49" style="edgeStyle=elbowEdgeStyle;rounded=0;orthogonalLoop=1;jettySize=auto;html=1;fontFamily=PalatinoLinotype;fontSource=http%3A%2F%2Ffonts.cdnfonts.com%2Fcss%2Fpalatino-linotype;fontSize=16;fontColor=#000000;endArrow=none;endFill=0;" parent="1" source="qVGGXMiODCfk0jNXhs8Z-4" edge="1">
          <mxGeometry relative="1" as="geometry">
            <mxPoint x="799.9999999999995" y="500" as="targetPoint" />
            <Array as="points">
              <mxPoint x="800" y="520" />
            </Array>
          </mxGeometry>
        </mxCell>
        <mxCell id="qVGGXMiODCfk0jNXhs8Z-4" value="&lt;font style=&quot;font-size: 16px;&quot;&gt;FÃ¡rmaco&lt;/font&gt;" style="rounded=0;whiteSpace=wrap;html=1;fontFamily=PalatinoLinotype;fontSource=http%3A%2F%2Ffonts.cdnfonts.com%2Fcss%2Fpalatino-linotype;fontStyle=1;fontSize=16;fillColor=#0050ef;fontColor=#000000;strokeColor=#3333FF;" parent="1" vertex="1">
          <mxGeometry x="445" y="480" width="160" height="80" as="geometry" />
        </mxCell>
        <mxCell id="qVGGXMiODCfk0jNXhs8Z-5" value="&lt;font style=&quot;font-size: 16px;&quot;&gt;Propiedad&lt;/font&gt;" style="rounded=0;whiteSpace=wrap;html=1;fontFamily=PalatinoLinotype;fontSource=http%3A%2F%2Ffonts.cdnfonts.com%2Fcss%2Fpalatino-linotype;fontStyle=1;fontSize=16;fillColor=#0050ef;fontColor=#000000;strokeColor=#3333FF;" parent="1" vertex="1">
          <mxGeometry x="40" y="480" width="160" height="80" as="geometry" />
        </mxCell>
        <mxCell id="qVGGXMiODCfk0jNXhs8Z-46" style="edgeStyle=orthogonalEdgeStyle;rounded=0;orthogonalLoop=1;jettySize=auto;html=1;exitX=0.5;exitY=1;exitDx=0;exitDy=0;entryX=0.5;entryY=0;entryDx=0;entryDy=0;fontFamily=PalatinoLinotype;fontSource=http%3A%2F%2Ffonts.cdnfonts.com%2Fcss%2Fpalatino-linotype;fontSize=16;fontColor=#000000;endArrow=none;endFill=0;" parent="1" source="qVGGXMiODCfk0jNXhs8Z-7" target="qVGGXMiODCfk0jNXhs8Z-3" edge="1">
          <mxGeometry relative="1" as="geometry" />
        </mxCell>
        <mxCell id="qVGGXMiODCfk0jNXhs8Z-7" value="Pertenece" style="rhombus;whiteSpace=wrap;html=1;labelBackgroundColor=#FFFFFF;fontFamily=PalatinoLinotype;fontSource=http%3A%2F%2Ffonts.cdnfonts.com%2Fcss%2Fpalatino-linotype;fontSize=16;fontColor=#000000;strokeColor=#3333FF;rounded=0;" parent="1" vertex="1">
          <mxGeometry x="720" y="220" width="160" height="80" as="geometry" />
        </mxCell>
        <mxCell id="qVGGXMiODCfk0jNXhs8Z-8" value="Posee" style="rhombus;whiteSpace=wrap;html=1;labelBackgroundColor=#FFFFFF;fontFamily=PalatinoLinotype;fontSource=http%3A%2F%2Ffonts.cdnfonts.com%2Fcss%2Fpalatino-linotype;fontSize=16;fontColor=#000000;strokeColor=#3333FF;rounded=0;" parent="1" vertex="1">
          <mxGeometry x="720" y="480" width="160" height="80" as="geometry" />
        </mxCell>
        <mxCell id="qVGGXMiODCfk0jNXhs8Z-50" style="edgeStyle=elbowEdgeStyle;rounded=0;orthogonalLoop=1;jettySize=auto;html=1;exitX=1;exitY=0.5;exitDx=0;exitDy=0;fontFamily=PalatinoLinotype;fontSource=http%3A%2F%2Ffonts.cdnfonts.com%2Fcss%2Fpalatino-linotype;fontSize=16;fontColor=#000000;endArrow=none;endFill=0;" parent="1" source="qVGGXMiODCfk0jNXhs8Z-9" target="qVGGXMiODCfk0jNXhs8Z-4" edge="1">
          <mxGeometry relative="1" as="geometry" />
        </mxCell>
        <mxCell id="qVGGXMiODCfk0jNXhs8Z-51" style="edgeStyle=elbowEdgeStyle;rounded=0;orthogonalLoop=1;jettySize=auto;html=1;exitX=0;exitY=0.5;exitDx=0;exitDy=0;entryX=1;entryY=0.5;entryDx=0;entryDy=0;fontFamily=PalatinoLinotype;fontSource=http%3A%2F%2Ffonts.cdnfonts.com%2Fcss%2Fpalatino-linotype;fontSize=16;fontColor=#000000;endArrow=none;endFill=0;" parent="1" source="qVGGXMiODCfk0jNXhs8Z-9" target="qVGGXMiODCfk0jNXhs8Z-5" edge="1">
          <mxGeometry relative="1" as="geometry" />
        </mxCell>
        <mxCell id="qVGGXMiODCfk0jNXhs8Z-9" value="Tiene" style="rhombus;whiteSpace=wrap;html=1;labelBackgroundColor=#FFFFFF;fontFamily=PalatinoLinotype;fontSource=http%3A%2F%2Ffonts.cdnfonts.com%2Fcss%2Fpalatino-linotype;fontSize=16;fontColor=#000000;strokeColor=#3333FF;rounded=0;" parent="1" vertex="1">
          <mxGeometry x="240" y="480" width="160" height="80" as="geometry" />
        </mxCell>
        <mxCell id="qVGGXMiODCfk0jNXhs8Z-65" style="edgeStyle=none;rounded=0;orthogonalLoop=1;jettySize=auto;html=1;exitX=0.5;exitY=0;exitDx=0;exitDy=0;entryX=0.5;entryY=1;entryDx=0;entryDy=0;fontFamily=PalatinoLinotype;fontSource=http%3A%2F%2Ffonts.cdnfonts.com%2Fcss%2Fpalatino-linotype;fontSize=16;fontColor=#000000;endArrow=none;endFill=0;" parent="1" source="qVGGXMiODCfk0jNXhs8Z-11" target="qVGGXMiODCfk0jNXhs8Z-4" edge="1">
          <mxGeometry relative="1" as="geometry" />
        </mxCell>
        <mxCell id="qVGGXMiODCfk0jNXhs8Z-11" value="uuid" style="ellipse;whiteSpace=wrap;html=1;labelBackgroundColor=#FFFFFF;fontFamily=PalatinoLinotype;fontSource=http%3A%2F%2Ffonts.cdnfonts.com%2Fcss%2Fpalatino-linotype;fontSize=16;fontColor=#000000;strokeColor=#000000;fontStyle=5;rounded=0;" parent="1" vertex="1">
          <mxGeometry x="405" y="600" width="70" height="50" as="geometry" />
        </mxCell>
        <mxCell id="qVGGXMiODCfk0jNXhs8Z-56" style="edgeStyle=none;rounded=0;orthogonalLoop=1;jettySize=auto;html=1;exitX=0.5;exitY=0;exitDx=0;exitDy=0;entryX=0.5;entryY=1;entryDx=0;entryDy=0;fontFamily=PalatinoLinotype;fontSource=http%3A%2F%2Ffonts.cdnfonts.com%2Fcss%2Fpalatino-linotype;fontSize=16;fontColor=#000000;endArrow=none;endFill=0;" parent="1" source="qVGGXMiODCfk0jNXhs8Z-12" target="qVGGXMiODCfk0jNXhs8Z-5" edge="1">
          <mxGeometry relative="1" as="geometry" />
        </mxCell>
        <mxCell id="qVGGXMiODCfk0jNXhs8Z-12" value="uuid" style="ellipse;whiteSpace=wrap;html=1;labelBackgroundColor=#FFFFFF;fontFamily=PalatinoLinotype;fontSource=http%3A%2F%2Ffonts.cdnfonts.com%2Fcss%2Fpalatino-linotype;fontSize=16;fontColor=#000000;strokeColor=#000000;fontStyle=5;rounded=0;" parent="1" vertex="1">
          <mxGeometry x="5" y="600" width="70" height="50" as="geometry" />
        </mxCell>
        <mxCell id="qVGGXMiODCfk0jNXhs8Z-31" style="edgeStyle=none;rounded=0;orthogonalLoop=1;jettySize=auto;html=1;exitX=0.5;exitY=1;exitDx=0;exitDy=0;entryX=0.5;entryY=0;entryDx=0;entryDy=0;fontFamily=PalatinoLinotype;fontSource=http%3A%2F%2Ffonts.cdnfonts.com%2Fcss%2Fpalatino-linotype;fontSize=16;fontColor=#000000;endArrow=none;endFill=0;" parent="1" source="qVGGXMiODCfk0jNXhs8Z-13" target="qVGGXMiODCfk0jNXhs8Z-1" edge="1">
          <mxGeometry relative="1" as="geometry" />
        </mxCell>
        <mxCell id="qVGGXMiODCfk0jNXhs8Z-13" value="uuid" style="ellipse;whiteSpace=wrap;html=1;labelBackgroundColor=#FFFFFF;fontFamily=PalatinoLinotype;fontSource=http%3A%2F%2Ffonts.cdnfonts.com%2Fcss%2Fpalatino-linotype;fontSize=16;fontColor=#000000;strokeColor=#3333FF;fontStyle=5;rounded=0;" parent="1" vertex="1">
          <mxGeometry x="360" y="70" width="70" height="50" as="geometry" />
        </mxCell>
        <mxCell id="qVGGXMiODCfk0jNXhs8Z-62" style="edgeStyle=none;rounded=0;orthogonalLoop=1;jettySize=auto;html=1;exitX=0;exitY=0.5;exitDx=0;exitDy=0;fontFamily=PalatinoLinotype;fontSource=http%3A%2F%2Ffonts.cdnfonts.com%2Fcss%2Fpalatino-linotype;fontSize=16;fontColor=#000000;endArrow=none;endFill=0;entryX=1;entryY=0.5;entryDx=0;entryDy=0;" parent="1" source="qVGGXMiODCfk0jNXhs8Z-14" target="qVGGXMiODCfk0jNXhs8Z-3" edge="1">
          <mxGeometry relative="1" as="geometry">
            <mxPoint x="880" y="360" as="targetPoint" />
          </mxGeometry>
        </mxCell>
        <mxCell id="qVGGXMiODCfk0jNXhs8Z-14" value="uuid" style="ellipse;whiteSpace=wrap;html=1;labelBackgroundColor=#FFFFFF;fontFamily=PalatinoLinotype;fontSource=http%3A%2F%2Ffonts.cdnfonts.com%2Fcss%2Fpalatino-linotype;fontSize=16;fontColor=#000000;strokeColor=#3333FF;fontStyle=5;rounded=0;" parent="1" vertex="1">
          <mxGeometry x="920" y="340" width="70" height="50" as="geometry" />
        </mxCell>
        <mxCell id="qVGGXMiODCfk0jNXhs8Z-37" style="edgeStyle=none;rounded=0;orthogonalLoop=1;jettySize=auto;html=1;exitX=0.5;exitY=0;exitDx=0;exitDy=0;fontFamily=PalatinoLinotype;fontSource=http%3A%2F%2Ffonts.cdnfonts.com%2Fcss%2Fpalatino-linotype;fontSize=16;fontColor=#000000;endArrow=none;endFill=0;entryX=0.5;entryY=1;entryDx=0;entryDy=0;" parent="1" source="qVGGXMiODCfk0jNXhs8Z-16" target="qVGGXMiODCfk0jNXhs8Z-1" edge="1">
          <mxGeometry relative="1" as="geometry">
            <mxPoint x="520" y="240" as="targetPoint" />
          </mxGeometry>
        </mxCell>
        <mxCell id="qVGGXMiODCfk0jNXhs8Z-16" value="apellido1" style="ellipse;whiteSpace=wrap;html=1;labelBackgroundColor=#FFFFFF;fontFamily=PalatinoLinotype;fontSource=http%3A%2F%2Ffonts.cdnfonts.com%2Fcss%2Fpalatino-linotype;fontSize=16;fontColor=#000000;strokeColor=#000000;fontStyle=0;rounded=0;" parent="1" vertex="1">
          <mxGeometry x="485" y="280" width="70" height="50" as="geometry" />
        </mxCell>
        <mxCell id="qVGGXMiODCfk0jNXhs8Z-36" style="edgeStyle=none;rounded=0;orthogonalLoop=1;jettySize=auto;html=1;exitX=0.5;exitY=0;exitDx=0;exitDy=0;entryX=0.5;entryY=1;entryDx=0;entryDy=0;fontFamily=PalatinoLinotype;fontSource=http%3A%2F%2Ffonts.cdnfonts.com%2Fcss%2Fpalatino-linotype;fontSize=16;fontColor=#000000;endArrow=none;endFill=0;" parent="1" source="qVGGXMiODCfk0jNXhs8Z-17" target="qVGGXMiODCfk0jNXhs8Z-1" edge="1">
          <mxGeometry relative="1" as="geometry" />
        </mxCell>
        <mxCell id="qVGGXMiODCfk0jNXhs8Z-17" value="nombre" style="ellipse;whiteSpace=wrap;html=1;labelBackgroundColor=#FFFFFF;fontFamily=PalatinoLinotype;fontSource=http%3A%2F%2Ffonts.cdnfonts.com%2Fcss%2Fpalatino-linotype;fontSize=16;fontColor=#000000;strokeColor=#000000;fontStyle=0;rounded=0;" parent="1" vertex="1">
          <mxGeometry x="405" y="280" width="70" height="50" as="geometry" />
        </mxCell>
        <mxCell id="qVGGXMiODCfk0jNXhs8Z-32" style="edgeStyle=none;rounded=0;orthogonalLoop=1;jettySize=auto;html=1;exitX=0.5;exitY=1;exitDx=0;exitDy=0;fontFamily=PalatinoLinotype;fontSource=http%3A%2F%2Ffonts.cdnfonts.com%2Fcss%2Fpalatino-linotype;fontSize=16;fontColor=#000000;endArrow=none;endFill=0;" parent="1" source="qVGGXMiODCfk0jNXhs8Z-19" edge="1">
          <mxGeometry relative="1" as="geometry">
            <mxPoint x="520" y="160" as="targetPoint" />
          </mxGeometry>
        </mxCell>
        <mxCell id="qVGGXMiODCfk0jNXhs8Z-19" value="email" style="ellipse;whiteSpace=wrap;html=1;labelBackgroundColor=#FFFFFF;fontFamily=PalatinoLinotype;fontSource=http%3A%2F%2Ffonts.cdnfonts.com%2Fcss%2Fpalatino-linotype;fontSize=16;fontColor=#000000;strokeColor=#3333FF;fontStyle=0;rounded=0;" parent="1" vertex="1">
          <mxGeometry x="440" y="70" width="70" height="50" as="geometry" />
        </mxCell>
        <mxCell id="qVGGXMiODCfk0jNXhs8Z-33" style="edgeStyle=none;rounded=0;orthogonalLoop=1;jettySize=auto;html=1;exitX=0.5;exitY=1;exitDx=0;exitDy=0;fontFamily=PalatinoLinotype;fontSource=http%3A%2F%2Ffonts.cdnfonts.com%2Fcss%2Fpalatino-linotype;fontSize=16;fontColor=#000000;endArrow=none;endFill=0;" parent="1" source="qVGGXMiODCfk0jNXhs8Z-20" edge="1">
          <mxGeometry relative="1" as="geometry">
            <mxPoint x="520" y="160" as="targetPoint" />
          </mxGeometry>
        </mxCell>
        <mxCell id="qVGGXMiODCfk0jNXhs8Z-20" value="password_hash" style="ellipse;whiteSpace=wrap;html=1;labelBackgroundColor=#FFFFFF;fontFamily=PalatinoLinotype;fontSource=http%3A%2F%2Ffonts.cdnfonts.com%2Fcss%2Fpalatino-linotype;fontSize=16;fontColor=#000000;strokeColor=#3333FF;fontStyle=0;rounded=0;" parent="1" vertex="1">
          <mxGeometry x="520" y="70" width="120" height="50" as="geometry" />
        </mxCell>
        <mxCell id="qVGGXMiODCfk0jNXhs8Z-29" style="rounded=0;orthogonalLoop=1;jettySize=auto;html=1;exitX=0.5;exitY=1;exitDx=0;exitDy=0;fontFamily=PalatinoLinotype;fontSource=http%3A%2F%2Ffonts.cdnfonts.com%2Fcss%2Fpalatino-linotype;fontSize=16;fontColor=#000000;endArrow=none;endFill=0;entryX=0.5;entryY=0;entryDx=0;entryDy=0;" parent="1" source="qVGGXMiODCfk0jNXhs8Z-21" target="qVGGXMiODCfk0jNXhs8Z-22" edge="1">
          <mxGeometry relative="1" as="geometry" />
        </mxCell>
        <mxCell id="qVGGXMiODCfk0jNXhs8Z-21" value="&lt;b&gt;&lt;u&gt;uuid&lt;/u&gt;&lt;/b&gt;" style="ellipse;whiteSpace=wrap;html=1;labelBackgroundColor=#FFFFFF;fontFamily=PalatinoLinotype;fontSource=http%3A%2F%2Ffonts.cdnfonts.com%2Fcss%2Fpalatino-linotype;fontSize=16;fontColor=#000000;strokeColor=#3333FF;fontStyle=0;rounded=0;" parent="1" vertex="1">
          <mxGeometry x="40" y="70" width="70" height="50" as="geometry" />
        </mxCell>
        <mxCell id="qVGGXMiODCfk0jNXhs8Z-43" style="edgeStyle=none;rounded=0;orthogonalLoop=1;jettySize=auto;html=1;fontFamily=PalatinoLinotype;fontSource=http%3A%2F%2Ffonts.cdnfonts.com%2Fcss%2Fpalatino-linotype;fontSize=16;fontColor=#000000;endArrow=none;endFill=0;entryX=0;entryY=0.5;entryDx=0;entryDy=0;" parent="1" source="qVGGXMiODCfk0jNXhs8Z-22" target="qVGGXMiODCfk0jNXhs8Z-24" edge="1">
          <mxGeometry relative="1" as="geometry">
            <mxPoint x="229.99999999999955" y="200" as="targetPoint" />
          </mxGeometry>
        </mxCell>
        <mxCell id="qVGGXMiODCfk0jNXhs8Z-22" value="&lt;font color=&quot;#000000&quot; style=&quot;font-size: 16px;&quot;&gt;Rol&lt;/font&gt;" style="rounded=0;whiteSpace=wrap;html=1;fontFamily=Times New Roman;fontStyle=1;fontSize=16;fillColor=#B8CCE4;fontColor=#ffffff;strokeColor=#000000;" parent="1" vertex="1">
          <mxGeometry x="40" y="160" width="160" height="80" as="geometry" />
        </mxCell>
        <mxCell id="qVGGXMiODCfk0jNXhs8Z-30" style="edgeStyle=none;rounded=0;orthogonalLoop=1;jettySize=auto;html=1;exitX=0.5;exitY=1;exitDx=0;exitDy=0;entryX=0.5;entryY=0;entryDx=0;entryDy=0;fontFamily=PalatinoLinotype;fontSource=http%3A%2F%2Ffonts.cdnfonts.com%2Fcss%2Fpalatino-linotype;fontSize=16;fontColor=#000000;endArrow=none;endFill=0;" parent="1" source="qVGGXMiODCfk0jNXhs8Z-23" target="qVGGXMiODCfk0jNXhs8Z-22" edge="1">
          <mxGeometry relative="1" as="geometry" />
        </mxCell>
        <mxCell id="qVGGXMiODCfk0jNXhs8Z-23" value="rol" style="ellipse;whiteSpace=wrap;html=1;labelBackgroundColor=#FFFFFF;fontFamily=PalatinoLinotype;fontSource=http%3A%2F%2Ffonts.cdnfonts.com%2Fcss%2Fpalatino-linotype;fontSize=16;fontColor=#000000;strokeColor=#3333FF;fontStyle=0;rounded=0;" parent="1" vertex="1">
          <mxGeometry x="130" y="70" width="70" height="50" as="geometry" />
        </mxCell>
        <mxCell id="qVGGXMiODCfk0jNXhs8Z-24" value="Tiene" style="rhombus;whiteSpace=wrap;html=1;labelBackgroundColor=#FFFFFF;fontFamily=PalatinoLinotype;fontSource=http%3A%2F%2Ffonts.cdnfonts.com%2Fcss%2Fpalatino-linotype;fontSize=16;fontColor=#000000;strokeColor=#3333FF;rounded=0;" parent="1" vertex="1">
          <mxGeometry x="240" y="160" width="160" height="80" as="geometry" />
        </mxCell>
        <mxCell id="qVGGXMiODCfk0jNXhs8Z-26" value="nombre" style="ellipse;whiteSpace=wrap;html=1;labelBackgroundColor=#FFFFFF;fontFamily=PalatinoLinotype;fontSource=http%3A%2F%2Ffonts.cdnfonts.com%2Fcss%2Fpalatino-linotype;fontSize=16;fontColor=#000000;strokeColor=#3333FF;fontStyle=0;rounded=0;" parent="1" vertex="1">
          <mxGeometry x="920" y="400" width="70" height="50" as="geometry" />
        </mxCell>
        <mxCell id="qVGGXMiODCfk0jNXhs8Z-52" style="rounded=0;orthogonalLoop=1;jettySize=auto;html=1;exitX=0.5;exitY=1;exitDx=0;exitDy=0;entryX=0.5;entryY=0;entryDx=0;entryDy=0;fontFamily=PalatinoLinotype;fontSource=http%3A%2F%2Ffonts.cdnfonts.com%2Fcss%2Fpalatino-linotype;fontSize=16;fontColor=#000000;endArrow=none;endFill=0;" parent="1" source="qVGGXMiODCfk0jNXhs8Z-27" target="qVGGXMiODCfk0jNXhs8Z-9" edge="1">
          <mxGeometry relative="1" as="geometry" />
        </mxCell>
        <mxCell id="qVGGXMiODCfk0jNXhs8Z-27" value="valor" style="ellipse;whiteSpace=wrap;html=1;labelBackgroundColor=#FFFFFF;fontFamily=PalatinoLinotype;fontSource=http%3A%2F%2Ffonts.cdnfonts.com%2Fcss%2Fpalatino-linotype;fontSize=16;fontColor=#000000;strokeColor=#000000;fontStyle=0;rounded=0;" parent="1" vertex="1">
          <mxGeometry x="240" y="400" width="70" height="50" as="geometry" />
        </mxCell>
        <mxCell id="qVGGXMiODCfk0jNXhs8Z-53" style="edgeStyle=none;rounded=0;orthogonalLoop=1;jettySize=auto;html=1;exitX=0.5;exitY=1;exitDx=0;exitDy=0;fontFamily=PalatinoLinotype;fontSource=http%3A%2F%2Ffonts.cdnfonts.com%2Fcss%2Fpalatino-linotype;fontSize=16;fontColor=#000000;endArrow=none;endFill=0;entryX=0.5;entryY=0;entryDx=0;entryDy=0;" parent="1" source="qVGGXMiODCfk0jNXhs8Z-28" target="qVGGXMiODCfk0jNXhs8Z-9" edge="1">
          <mxGeometry relative="1" as="geometry">
            <mxPoint x="279.99999999999955" y="480" as="targetPoint" />
          </mxGeometry>
        </mxCell>
        <mxCell id="qVGGXMiODCfk0jNXhs8Z-28" value="mÃºltiplo" style="ellipse;whiteSpace=wrap;html=1;labelBackgroundColor=#FFFFFF;fontFamily=PalatinoLinotype;fontSource=http%3A%2F%2Ffonts.cdnfonts.com%2Fcss%2Fpalatino-linotype;fontSize=16;fontColor=#000000;strokeColor=#000000;fontStyle=0;rounded=0;" parent="1" vertex="1">
          <mxGeometry x="330" y="400" width="70" height="50" as="geometry" />
        </mxCell>
        <mxCell id="qVGGXMiODCfk0jNXhs8Z-66" style="edgeStyle=none;rounded=0;orthogonalLoop=1;jettySize=auto;html=1;exitX=0.5;exitY=0;exitDx=0;exitDy=0;fontFamily=PalatinoLinotype;fontSource=http%3A%2F%2Ffonts.cdnfonts.com%2Fcss%2Fpalatino-linotype;fontSize=16;fontColor=#000000;endArrow=none;endFill=0;entryX=0.5;entryY=1;entryDx=0;entryDy=0;" parent="1" source="qVGGXMiODCfk0jNXhs8Z-41" target="qVGGXMiODCfk0jNXhs8Z-4" edge="1">
          <mxGeometry relative="1" as="geometry">
            <mxPoint x="520.5294117647059" y="570" as="targetPoint" />
          </mxGeometry>
        </mxCell>
        <mxCell id="qVGGXMiODCfk0jNXhs8Z-41" value="&lt;span style=&quot;font-weight: normal;&quot;&gt;nombre&lt;/span&gt;" style="ellipse;whiteSpace=wrap;html=1;labelBackgroundColor=#FFFFFF;fontFamily=PalatinoLinotype;fontSource=http%3A%2F%2Ffonts.cdnfonts.com%2Fcss%2Fpalatino-linotype;fontSize=16;fontColor=#000000;strokeColor=#000000;fontStyle=1;rounded=0;" parent="1" vertex="1">
          <mxGeometry x="490" y="600" width="70" height="50" as="geometry" />
        </mxCell>
        <mxCell id="qVGGXMiODCfk0jNXhs8Z-68" style="edgeStyle=none;rounded=0;orthogonalLoop=1;jettySize=auto;html=1;exitX=0.5;exitY=0;exitDx=0;exitDy=0;entryX=0.5;entryY=1;entryDx=0;entryDy=0;fontFamily=PalatinoLinotype;fontSource=http%3A%2F%2Ffonts.cdnfonts.com%2Fcss%2Fpalatino-linotype;fontSize=16;fontColor=#000000;endArrow=none;endFill=0;" parent="1" source="qVGGXMiODCfk0jNXhs8Z-42" target="qVGGXMiODCfk0jNXhs8Z-4" edge="1">
          <mxGeometry relative="1" as="geometry" />
        </mxCell>
        <mxCell id="qVGGXMiODCfk0jNXhs8Z-42" value="&lt;span style=&quot;font-weight: 400;&quot;&gt;dosis_maxima&lt;/span&gt;" style="ellipse;whiteSpace=wrap;html=1;labelBackgroundColor=#FFFFFF;fontFamily=PalatinoLinotype;fontSource=http%3A%2F%2Ffonts.cdnfonts.com%2Fcss%2Fpalatino-linotype;fontSize=16;fontColor=#000000;strokeColor=#3333FF;fontStyle=1;rounded=0;" parent="1" vertex="1">
          <mxGeometry x="580" y="600" width="110" height="50" as="geometry" />
        </mxCell>
        <mxCell id="qVGGXMiODCfk0jNXhs8Z-60" style="edgeStyle=none;rounded=0;orthogonalLoop=1;jettySize=auto;html=1;exitX=0.5;exitY=0;exitDx=0;exitDy=0;entryX=0.5;entryY=1;entryDx=0;entryDy=0;fontFamily=PalatinoLinotype;fontSource=http%3A%2F%2Ffonts.cdnfonts.com%2Fcss%2Fpalatino-linotype;fontSize=16;fontColor=#000000;endArrow=none;endFill=0;" parent="1" source="qVGGXMiODCfk0jNXhs8Z-54" target="qVGGXMiODCfk0jNXhs8Z-5" edge="1">
          <mxGeometry relative="1" as="geometry" />
        </mxCell>
        <mxCell id="qVGGXMiODCfk0jNXhs8Z-54" value="tipo" style="ellipse;whiteSpace=wrap;html=1;labelBackgroundColor=#FFFFFF;fontFamily=PalatinoLinotype;fontSource=http%3A%2F%2Ffonts.cdnfonts.com%2Fcss%2Fpalatino-linotype;fontSize=16;fontColor=#000000;strokeColor=#000000;fontStyle=0;rounded=0;" parent="1" vertex="1">
          <mxGeometry x="85" y="600" width="70" height="50" as="geometry" />
        </mxCell>
        <mxCell id="qVGGXMiODCfk0jNXhs8Z-58" style="edgeStyle=none;rounded=0;orthogonalLoop=1;jettySize=auto;html=1;exitX=0.5;exitY=0;exitDx=0;exitDy=0;entryX=0.5;entryY=1;entryDx=0;entryDy=0;fontFamily=PalatinoLinotype;fontSource=http%3A%2F%2Ffonts.cdnfonts.com%2Fcss%2Fpalatino-linotype;fontSize=16;fontColor=#000000;endArrow=none;endFill=0;" parent="1" source="qVGGXMiODCfk0jNXhs8Z-55" target="qVGGXMiODCfk0jNXhs8Z-5" edge="1">
          <mxGeometry relative="1" as="geometry" />
        </mxCell>
        <mxCell id="qVGGXMiODCfk0jNXhs8Z-55" value="unidad" style="ellipse;whiteSpace=wrap;html=1;labelBackgroundColor=#FFFFFF;fontFamily=PalatinoLinotype;fontSource=http%3A%2F%2Ffonts.cdnfonts.com%2Fcss%2Fpalatino-linotype;fontSize=16;fontColor=#000000;strokeColor=#000000;fontStyle=0;rounded=0;" parent="1" vertex="1">
          <mxGeometry x="165" y="600" width="70" height="50" as="geometry" />
        </mxCell>
        <mxCell id="qVGGXMiODCfk0jNXhs8Z-64" style="edgeStyle=none;rounded=0;orthogonalLoop=1;jettySize=auto;html=1;exitX=0.5;exitY=0;exitDx=0;exitDy=0;fontFamily=PalatinoLinotype;fontSource=http%3A%2F%2Ffonts.cdnfonts.com%2Fcss%2Fpalatino-linotype;fontSize=16;fontColor=#000000;endArrow=none;endFill=0;" parent="1" source="qVGGXMiODCfk0jNXhs8Z-42" target="qVGGXMiODCfk0jNXhs8Z-42" edge="1">
          <mxGeometry relative="1" as="geometry" />
        </mxCell>
        <mxCell id="qVGGXMiODCfk0jNXhs8Z-69" style="edgeStyle=none;rounded=0;orthogonalLoop=1;jettySize=auto;html=1;exitX=0.5;exitY=1;exitDx=0;exitDy=0;fontFamily=PalatinoLinotype;fontSource=http%3A%2F%2Ffonts.cdnfonts.com%2Fcss%2Fpalatino-linotype;fontSize=16;fontColor=#000000;endArrow=none;endFill=0;" parent="1" source="qVGGXMiODCfk0jNXhs8Z-42" target="qVGGXMiODCfk0jNXhs8Z-42" edge="1">
          <mxGeometry relative="1" as="geometry" />
        </mxCell>
        <mxCell id="qVGGXMiODCfk0jNXhs8Z-79" value="1" style="edgeLabel;html=1;align=center;verticalAlign=middle;resizable=0;points=[];fontSize=16;fontFamily=PalatinoLinotype;fontColor=#000000;rounded=0;" parent="1" vertex="1" connectable="0">
          <mxGeometry x="730.0029411764707" y="240" as="geometry">
            <mxPoint x="82" y="91" as="offset" />
          </mxGeometry>
        </mxCell>
        <mxCell id="qVGGXMiODCfk0jNXhs8Z-81" value="1" style="edgeLabel;html=1;align=center;verticalAlign=middle;resizable=0;points=[];fontSize=16;fontFamily=PalatinoLinotype;fontColor=#000000;rounded=0;" parent="1" vertex="1" connectable="0">
          <mxGeometry x="730.0029411764707" y="350" as="geometry">
            <mxPoint x="82" y="91" as="offset" />
          </mxGeometry>
        </mxCell>
        <mxCell id="qVGGXMiODCfk0jNXhs8Z-82" value="m" style="edgeLabel;html=1;align=center;verticalAlign=middle;resizable=0;points=[];fontSize=16;fontFamily=PalatinoLinotype;fontColor=#000000;rounded=0;" parent="1" vertex="1" connectable="0">
          <mxGeometry x="540.0029411764707" y="414" as="geometry">
            <mxPoint x="82" y="91" as="offset" />
          </mxGeometry>
        </mxCell>
        <mxCell id="qVGGXMiODCfk0jNXhs8Z-83" value="m" style="edgeLabel;html=1;align=center;verticalAlign=middle;resizable=0;points=[];fontSize=16;fontFamily=PalatinoLinotype;fontColor=#000000;rounded=0;" parent="1" vertex="1" connectable="0">
          <mxGeometry x="350.0029411764707" y="414" as="geometry">
            <mxPoint x="82" y="91" as="offset" />
          </mxGeometry>
        </mxCell>
        <mxCell id="qVGGXMiODCfk0jNXhs8Z-84" value="m" style="edgeLabel;html=1;align=center;verticalAlign=middle;resizable=0;points=[];fontSize=16;fontFamily=PalatinoLinotype;fontColor=#000000;rounded=0;" parent="1" vertex="1" connectable="0">
          <mxGeometry x="130.0029411764707" y="414" as="geometry">
            <mxPoint x="82" y="91" as="offset" />
          </mxGeometry>
        </mxCell>
        <mxCell id="qVGGXMiODCfk0jNXhs8Z-85" value="1" style="edgeLabel;html=1;align=center;verticalAlign=middle;resizable=0;points=[];fontSize=16;fontFamily=PalatinoLinotype;fontColor=#000000;rounded=0;" parent="1" vertex="1" connectable="0">
          <mxGeometry x="130.0029411764707" y="95" as="geometry">
            <mxPoint x="82" y="91" as="offset" />
          </mxGeometry>
        </mxCell>
        <mxCell id="qVGGXMiODCfk0jNXhs8Z-94" value="m" style="edgeLabel;html=1;align=center;verticalAlign=middle;resizable=0;points=[];fontSize=16;fontFamily=PalatinoLinotype;fontColor=#000000;rounded=0;" parent="1" vertex="1" connectable="0">
          <mxGeometry x="330.0029411764707" y="95" as="geometry">
            <mxPoint x="82" y="91" as="offset" />
          </mxGeometry>
        </mxCell>
        <mxCell id="qVGGXMiODCfk0jNXhs8Z-98" style="edgeStyle=none;rounded=0;orthogonalLoop=1;jettySize=auto;html=1;exitX=0.5;exitY=0;exitDx=0;exitDy=0;entryX=0.5;entryY=1;entryDx=0;entryDy=0;fontFamily=PalatinoLinotype;fontSource=http%3A%2F%2Ffonts.cdnfonts.com%2Fcss%2Fpalatino-linotype;fontSize=16;fontColor=#000000;endArrow=none;endFill=0;" parent="1" source="qVGGXMiODCfk0jNXhs8Z-95" target="qVGGXMiODCfk0jNXhs8Z-1" edge="1">
          <mxGeometry relative="1" as="geometry" />
        </mxCell>
        <mxCell id="qVGGXMiODCfk0jNXhs8Z-95" value="apellido2" style="ellipse;whiteSpace=wrap;html=1;labelBackgroundColor=#FFFFFF;fontFamily=PalatinoLinotype;fontSource=http%3A%2F%2Ffonts.cdnfonts.com%2Fcss%2Fpalatino-linotype;fontSize=16;fontColor=#000000;strokeColor=#000000;fontStyle=0;rounded=0;" parent="1" vertex="1">
          <mxGeometry x="570" y="280" width="70" height="50" as="geometry" />
        </mxCell>
        <mxCell id="qVGGXMiODCfk0jNXhs8Z-97" style="edgeStyle=none;rounded=0;orthogonalLoop=1;jettySize=auto;html=1;exitX=1;exitY=0.5;exitDx=0;exitDy=0;fontFamily=PalatinoLinotype;fontSource=http%3A%2F%2Ffonts.cdnfonts.com%2Fcss%2Fpalatino-linotype;fontSize=16;fontColor=#000000;endArrow=none;endFill=0;" parent="1" source="qVGGXMiODCfk0jNXhs8Z-16" target="qVGGXMiODCfk0jNXhs8Z-16" edge="1">
          <mxGeometry relative="1" as="geometry" />
        </mxCell>
        <mxCell id="qVGGXMiODCfk0jNXhs8Z-101" style="edgeStyle=none;rounded=0;orthogonalLoop=1;jettySize=auto;html=1;exitX=0.5;exitY=1;exitDx=0;exitDy=0;entryX=0.426;entryY=0.017;entryDx=0;entryDy=0;entryPerimeter=0;fontFamily=PalatinoLinotype;fontSource=http%3A%2F%2Ffonts.cdnfonts.com%2Fcss%2Fpalatino-linotype;fontSize=16;fontColor=#000000;endArrow=none;endFill=0;" parent="1" source="qVGGXMiODCfk0jNXhs8Z-100" target="qVGGXMiODCfk0jNXhs8Z-1" edge="1">
          <mxGeometry relative="1" as="geometry" />
        </mxCell>
        <mxCell id="qVGGXMiODCfk0jNXhs8Z-100" value="fecha_alta" style="ellipse;whiteSpace=wrap;html=1;labelBackgroundColor=#FFFFFF;fontFamily=PalatinoLinotype;fontSource=http%3A%2F%2Ffonts.cdnfonts.com%2Fcss%2Fpalatino-linotype;fontSize=16;fontColor=#000000;strokeColor=#3333FF;fontStyle=0;rounded=0;" parent="1" vertex="1">
          <mxGeometry x="650" y="70" width="70" height="50" as="geometry" />
        </mxCell>
        <mxCell id="RacWLpNOJm9hZJuylxFO-1" value="Tiene" style="rhombus;whiteSpace=wrap;html=1;labelBackgroundColor=#FFFFFF;fontFamily=PalatinoLinotype;fontSource=http%3A%2F%2Ffonts.cdnfonts.com%2Fcss%2Fpalatino-linotype;fontSize=16;fontColor=#000000;strokeColor=#000000;rounded=0;" vertex="1" parent="1">
          <mxGeometry x="240" y="480" width="160" height="80" as="geometry" />
        </mxCell>
        <mxCell id="RacWLpNOJm9hZJuylxFO-2" value="&lt;b&gt;&lt;u&gt;uuid&lt;/u&gt;&lt;/b&gt;" style="ellipse;whiteSpace=wrap;html=1;labelBackgroundColor=#FFFFFF;fontFamily=PalatinoLinotype;fontSource=http%3A%2F%2Ffonts.cdnfonts.com%2Fcss%2Fpalatino-linotype;fontSize=16;fontColor=#000000;strokeColor=#000000;fontStyle=0;rounded=0;" vertex="1" parent="1">
          <mxGeometry x="40" y="70" width="70" height="50" as="geometry" />
        </mxCell>
        <mxCell id="RacWLpNOJm9hZJuylxFO-3" value="rol" style="ellipse;whiteSpace=wrap;html=1;labelBackgroundColor=#FFFFFF;fontFamily=PalatinoLinotype;fontSource=http%3A%2F%2Ffonts.cdnfonts.com%2Fcss%2Fpalatino-linotype;fontSize=16;fontColor=#000000;strokeColor=#000000;fontStyle=0;rounded=0;" vertex="1" parent="1">
          <mxGeometry x="130" y="70" width="70" height="50" as="geometry" />
        </mxCell>
        <mxCell id="RacWLpNOJm9hZJuylxFO-4" value="Tiene" style="rhombus;whiteSpace=wrap;html=1;labelBackgroundColor=#FFFFFF;fontFamily=PalatinoLinotype;fontSource=http%3A%2F%2Ffonts.cdnfonts.com%2Fcss%2Fpalatino-linotype;fontSize=16;fontColor=#000000;strokeColor=#000000;rounded=0;" vertex="1" parent="1">
          <mxGeometry x="240" y="160" width="160" height="80" as="geometry" />
        </mxCell>
        <mxCell id="RacWLpNOJm9hZJuylxFO-5" value="uuid" style="ellipse;whiteSpace=wrap;html=1;labelBackgroundColor=#FFFFFF;fontFamily=PalatinoLinotype;fontSource=http%3A%2F%2Ffonts.cdnfonts.com%2Fcss%2Fpalatino-linotype;fontSize=16;fontColor=#000000;strokeColor=#000000;fontStyle=5;rounded=0;" vertex="1" parent="1">
          <mxGeometry x="360" y="70" width="70" height="50" as="geometry" />
        </mxCell>
        <mxCell id="RacWLpNOJm9hZJuylxFO-6" value="email" style="ellipse;whiteSpace=wrap;html=1;labelBackgroundColor=#FFFFFF;fontFamily=PalatinoLinotype;fontSource=http%3A%2F%2Ffonts.cdnfonts.com%2Fcss%2Fpalatino-linotype;fontSize=16;fontColor=#000000;strokeColor=#000000;fontStyle=0;rounded=0;" vertex="1" parent="1">
          <mxGeometry x="440" y="70" width="70" height="50" as="geometry" />
        </mxCell>
        <mxCell id="RacWLpNOJm9hZJuylxFO-7" value="password_hash" style="ellipse;whiteSpace=wrap;html=1;labelBackgroundColor=#FFFFFF;fontFamily=PalatinoLinotype;fontSource=http%3A%2F%2Ffonts.cdnfonts.com%2Fcss%2Fpalatino-linotype;fontSize=16;fontColor=#000000;strokeColor=#000000;fontStyle=0;rounded=0;" vertex="1" parent="1">
          <mxGeometry x="520" y="70" width="120" height="50" as="geometry" />
        </mxCell>
        <mxCell id="RacWLpNOJm9hZJuylxFO-8" value="fecha_alta" style="ellipse;whiteSpace=wrap;html=1;labelBackgroundColor=#FFFFFF;fontFamily=PalatinoLinotype;fontSource=http%3A%2F%2Ffonts.cdnfonts.com%2Fcss%2Fpalatino-linotype;fontSize=16;fontColor=#000000;strokeColor=#000000;fontStyle=0;rounded=0;" vertex="1" parent="1">
          <mxGeometry x="650" y="70" width="70" height="50" as="geometry" />
        </mxCell>
        <mxCell id="RacWLpNOJm9hZJuylxFO-13" value="Pertenece" style="rhombus;whiteSpace=wrap;html=1;labelBackgroundColor=#FFFFFF;fontFamily=PalatinoLinotype;fontSource=http%3A%2F%2Ffonts.cdnfonts.com%2Fcss%2Fpalatino-linotype;fontSize=16;fontColor=#000000;strokeColor=#000000;rounded=0;" vertex="1" parent="1">
          <mxGeometry x="720" y="220" width="160" height="80" as="geometry" />
        </mxCell>
        <mxCell id="RacWLpNOJm9hZJuylxFO-14" value="uuid" style="ellipse;whiteSpace=wrap;html=1;labelBackgroundColor=#FFFFFF;fontFamily=PalatinoLinotype;fontSource=http%3A%2F%2Ffonts.cdnfonts.com%2Fcss%2Fpalatino-linotype;fontSize=16;fontColor=#000000;strokeColor=#000000;fontStyle=5;rounded=0;" vertex="1" parent="1">
          <mxGeometry x="920" y="340" width="70" height="50" as="geometry" />
        </mxCell>
        <mxCell id="RacWLpNOJm9hZJuylxFO-15" value="nombre" style="ellipse;whiteSpace=wrap;html=1;labelBackgroundColor=#FFFFFF;fontFamily=PalatinoLinotype;fontSource=http%3A%2F%2Ffonts.cdnfonts.com%2Fcss%2Fpalatino-linotype;fontSize=16;fontColor=#000000;strokeColor=#000000;fontStyle=0;rounded=0;" vertex="1" parent="1">
          <mxGeometry x="920" y="400" width="70" height="50" as="geometry" />
        </mxCell>
        <mxCell id="RacWLpNOJm9hZJuylxFO-16" value="Posee" style="rhombus;whiteSpace=wrap;html=1;labelBackgroundColor=#FFFFFF;fontFamily=PalatinoLinotype;fontSource=http%3A%2F%2Ffonts.cdnfonts.com%2Fcss%2Fpalatino-linotype;fontSize=16;fontColor=#000000;strokeColor=#000000;rounded=0;" vertex="1" parent="1">
          <mxGeometry x="720" y="480" width="160" height="80" as="geometry" />
        </mxCell>
        <mxCell id="RacWLpNOJm9hZJuylxFO-17" value="&lt;span style=&quot;font-weight: 400;&quot;&gt;dosis_maxima&lt;/span&gt;" style="ellipse;whiteSpace=wrap;html=1;labelBackgroundColor=#FFFFFF;fontFamily=PalatinoLinotype;fontSource=http%3A%2F%2Ffonts.cdnfonts.com%2Fcss%2Fpalatino-linotype;fontSize=16;fontColor=#000000;strokeColor=#000000;fontStyle=1;rounded=0;" vertex="1" parent="1">
          <mxGeometry x="580" y="600" width="110" height="50" as="geometry" />
        </mxCell>
        <mxCell id="RacWLpNOJm9hZJuylxFO-18" value="&lt;font style=&quot;font-size: 16px;&quot;&gt;Propiedad&lt;/font&gt;" style="rounded=0;whiteSpace=wrap;html=1;fontFamily=PalatinoLinotype;fontSource=http%3A%2F%2Ffonts.cdnfonts.com%2Fcss%2Fpalatino-linotype;fontStyle=1;fontSize=16;fillColor=#B8CCE4;fontColor=#000000;strokeColor=#000000;" vertex="1" parent="1">
          <mxGeometry x="40" y="480" width="160" height="80" as="geometry" />
        </mxCell>
        <mxCell id="RacWLpNOJm9hZJuylxFO-19" value="&lt;font style=&quot;font-size: 16px;&quot;&gt;Usuario&lt;/font&gt;" style="rounded=0;whiteSpace=wrap;html=1;fontFamily=PalatinoLinotype;fontSource=http%3A%2F%2Ffonts.cdnfonts.com%2Fcss%2Fpalatino-linotype;fontStyle=1;fontSize=16;fillColor=#B8CCE4;fontColor=#000000;strokeColor=#000000;" vertex="1" parent="1">
          <mxGeometry x="440" y="160" width="160" height="80" as="geometry" />
        </mxCell>
        <mxCell id="RacWLpNOJm9hZJuylxFO-20" value="&lt;font style=&quot;font-size: 16px;&quot;&gt;Hospital&lt;/font&gt;" style="rounded=0;whiteSpace=wrap;html=1;fontFamily=PalatinoLinotype;fontSource=http%3A%2F%2Ffonts.cdnfonts.com%2Fcss%2Fpalatino-linotype;fontStyle=1;fontSize=16;fillColor=#B8CCE4;fontColor=#000000;strokeColor=#000000;" vertex="1" parent="1">
          <mxGeometry x="720" y="350" width="160" height="80" as="geometry" />
        </mxCell>
        <mxCell id="RacWLpNOJm9hZJuylxFO-21" value="&lt;font style=&quot;font-size: 16px;&quot;&gt;FÃ¡rmaco&lt;/font&gt;" style="rounded=0;whiteSpace=wrap;html=1;fontFamily=PalatinoLinotype;fontSource=http%3A%2F%2Ffonts.cdnfonts.com%2Fcss%2Fpalatino-linotype;fontStyle=1;fontSize=16;fillColor=#B8CCE4;fontColor=#000000;strokeColor=#000000;" vertex="1" parent="1">
          <mxGeometry x="445" y="480" width="160" height="80" as="geometry" />
        </mxCell>
      </root>
    </mxGraphModel>
  </diagram>
  <diagram id="YWboT-miNrhk7LrqaDKe" name="Diagrama arquitectura">
    <mxGraphModel dx="1289" dy="702" grid="1" gridSize="10" guides="1" tooltips="1" connect="1" arrows="1" fold="1" page="1" pageScale="1" pageWidth="1169" pageHeight="827" math="0" shadow="0">
      <root>
        <mxCell id="0" />
        <mxCell id="1" parent="0" />
        <mxCell id="1VwB1YV1Wab_nGXuwV7w-12" value="" style="rounded=0;whiteSpace=wrap;html=1;fontFamily=Times New Roman;fontSize=11;" vertex="1" parent="1">
          <mxGeometry x="70" y="480" width="220" height="200" as="geometry" />
        </mxCell>
        <mxCell id="1VwB1YV1Wab_nGXuwV7w-13" value="AplicaciÃ³n para SO Android&lt;br&gt;&amp;nbsp;(Capa de presentaciÃ³n)" style="text;html=1;align=center;verticalAlign=middle;resizable=0;points=[];autosize=1;strokeColor=none;fillColor=none;fontSize=16;fontFamily=Times New Roman;fontColor=#000000;" vertex="1" parent="1">
          <mxGeometry x="75" y="620" width="210" height="50" as="geometry" />
        </mxCell>
        <mxCell id="1VwB1YV1Wab_nGXuwV7w-15" value="" style="rounded=0;whiteSpace=wrap;html=1;fontFamily=Times New Roman;fontSize=16;" vertex="1" parent="1">
          <mxGeometry x="600" y="470" width="420" height="210" as="geometry" />
        </mxCell>
        <mxCell id="1VwB1YV1Wab_nGXuwV7w-16" value="&lt;br&gt;AplicaciÃ³n Spring Boot&lt;br&gt;(Capa de negocio)" style="text;html=1;align=center;verticalAlign=middle;resizable=0;points=[];autosize=1;strokeColor=none;fillColor=none;fontSize=16;fontFamily=Times New Roman;fontColor=#000000;" vertex="1" parent="1">
          <mxGeometry x="620" y="597.5" width="180" height="70" as="geometry" />
        </mxCell>
        <mxCell id="1VwB1YV1Wab_nGXuwV7w-17" value="" style="image;html=1;image=img/lib/clip_art/computers/iPad_128x128.png;fontFamily=Times New Roman;fontSize=11;fontColor=#000000;strokeColor=#000000;fillColor=#B8CCE4;" vertex="1" parent="1">
          <mxGeometry x="210" y="425" width="140" height="110" as="geometry" />
        </mxCell>
        <mxCell id="1VwB1YV1Wab_nGXuwV7w-18" value="" style="dashed=0;outlineConnect=0;html=1;align=center;labelPosition=center;verticalLabelPosition=bottom;verticalAlign=top;shape=mxgraph.weblogos.android;fillColor=#A4CA39;strokeColor=none;fontFamily=Times New Roman;fontSize=11;fontColor=#000000;" vertex="1" parent="1">
          <mxGeometry x="150" y="531.25" width="60" height="67.5" as="geometry" />
        </mxCell>
        <mxCell id="1VwB1YV1Wab_nGXuwV7w-19" value="" style="image;html=1;image=img/lib/clip_art/computers/Server_128x128.png;fontFamily=Times New Roman;fontSize=11;fontColor=#000000;strokeColor=#000000;fillColor=#B8CCE4;" vertex="1" parent="1">
          <mxGeometry x="550" y="360" width="145" height="230" as="geometry" />
        </mxCell>
        <mxCell id="1VwB1YV1Wab_nGXuwV7w-23" value="&lt;span style=&quot;color: rgba(0, 0, 0, 0); font-family: monospace; font-size: 0px; text-align: start;&quot;&gt;%3CmxGraphModel%3E%3Croot%3E%3CmxCell%20id%3D%220%22%2F%3E%3CmxCell%20id%3D%221%22%20parent%3D%220%22%2F%3E%3CmxCell%20id%3D%222%22%20value%3D%22JPA%22%20style%3D%22rounded%3D0%3BwhiteSpace%3Dwrap%3Bhtml%3D1%3BfontFamily%3DTimes%20New%20Roman%3BfontSize%3D16%3BstrokeColor%3Dnone%3BfontColor%3D%23FF6666%3BfontStyle%3D1%22%20vertex%3D%221%22%20parent%3D%221%22%3E%3CmxGeometry%20x%3D%22720%22%20y%3D%22530%22%20width%3D%2260%22%20height%3D%2240%22%20as%3D%22geometry%22%2F%3E%3C%2FmxCell%3E%3C%2Froot%3E%3C%2FmxGraphModel%3E&lt;/span&gt;" style="rounded=0;whiteSpace=wrap;html=1;fontFamily=Times New Roman;fontSize=16;strokeColor=#000000;fillColor=#d5e8d4;" vertex="1" parent="1">
          <mxGeometry x="550" y="548.12" width="100" height="50" as="geometry" />
        </mxCell>
        <mxCell id="1VwB1YV1Wab_nGXuwV7w-26" value="" style="image;html=1;image=img/lib/clip_art/computers/Database_128x128.png;fontFamily=Times New Roman;fontSize=11;fontColor=#000000;strokeColor=#000000;fillColor=#B8CCE4;" vertex="1" parent="1">
          <mxGeometry x="880" y="490" width="80" height="150" as="geometry" />
        </mxCell>
        <mxCell id="1VwB1YV1Wab_nGXuwV7w-29" value="PostgreSQL&lt;br&gt;(Capa de datos)" style="text;html=1;align=center;verticalAlign=middle;resizable=0;points=[];autosize=1;strokeColor=none;fillColor=none;fontSize=16;fontFamily=Times New Roman;fontColor=#000000;" vertex="1" parent="1">
          <mxGeometry x="860" y="620" width="120" height="50" as="geometry" />
        </mxCell>
        <mxCell id="1VwB1YV1Wab_nGXuwV7w-31" value="JPA" style="rounded=0;whiteSpace=wrap;html=1;fontFamily=Times New Roman;fontSize=16;strokeColor=none;fontColor=#FF6666;fontStyle=1" vertex="1" parent="1">
          <mxGeometry x="750" y="530" width="60" height="40" as="geometry" />
        </mxCell>
        <mxCell id="1VwB1YV1Wab_nGXuwV7w-33" value="" style="ellipse;shape=cloud;whiteSpace=wrap;html=1;fontFamily=Times New Roman;fontSize=16;fontColor=#FF6666;strokeColor=#000000;fillColor=#B8CCE4;" vertex="1" parent="1">
          <mxGeometry x="330" y="500" width="210" height="130" as="geometry" />
        </mxCell>
        <mxCell id="1VwB1YV1Wab_nGXuwV7w-34" value="" style="endArrow=classic;startArrow=classic;html=1;fontFamily=Times New Roman;fontSize=16;fontColor=#FF6666;strokeColor=#FF6666;shadow=1;strokeWidth=5;" edge="1" parent="1">
          <mxGeometry width="50" height="50" relative="1" as="geometry">
            <mxPoint x="380" y="572.62" as="sourcePoint" />
            <mxPoint x="500" y="572.62" as="targetPoint" />
            <Array as="points">
              <mxPoint x="420" y="572.62" />
            </Array>
          </mxGeometry>
        </mxCell>
        <mxCell id="1VwB1YV1Wab_nGXuwV7w-35" value="" style="endArrow=classic;startArrow=classic;html=1;fontFamily=Times New Roman;fontSize=16;fontColor=#FF6666;strokeColor=#FF6666;shadow=1;strokeWidth=5;" edge="1" parent="1">
          <mxGeometry width="50" height="50" relative="1" as="geometry">
            <mxPoint x="790" y="580" as="sourcePoint" />
            <mxPoint x="880" y="579.5" as="targetPoint" />
            <Array as="points">
              <mxPoint x="800" y="579.5" />
            </Array>
          </mxGeometry>
        </mxCell>
        <mxCell id="1VwB1YV1Wab_nGXuwV7w-36" value="API REST" style="rounded=0;whiteSpace=wrap;html=1;fontFamily=Times New Roman;fontSize=16;strokeColor=none;fontStyle=1;fillColor=#d5e8d4;" vertex="1" parent="1">
          <mxGeometry x="570" y="555" width="60" height="40" as="geometry" />
        </mxCell>
        <mxCell id="1VwB1YV1Wab_nGXuwV7w-37" value="&lt;b&gt;HTTP&lt;/b&gt;" style="text;html=1;align=center;verticalAlign=middle;resizable=0;points=[];autosize=1;strokeColor=none;fillColor=none;fontSize=16;fontFamily=Times New Roman;fontColor=#FF6666;" vertex="1" parent="1">
          <mxGeometry x="410" y="535" width="70" height="30" as="geometry" />
        </mxCell>
      </root>
    </mxGraphModel>
  </diagram>
</mxfile>
